<?xml version="1.0" encoding="UTF-8" standalone="no"?>
<!-- Created with Inkscape (http://www.inkscape.org/) -->

<svg
   width="1920"
   height="1080"
   viewBox="0 0 1920 1080"
   version="1.1"
   id="svg5"
   inkscape:version="1.3 (0e150ed6c4, 2023-07-21)"
   sodipodi:docname="track-prototype.svg"
   xmlns:inkscape="http://www.inkscape.org/namespaces/inkscape"
   xmlns:sodipodi="http://sodipodi.sourceforge.net/DTD/sodipodi-0.dtd"
   xmlns="http://www.w3.org/2000/svg"
   xmlns:svg="http://www.w3.org/2000/svg">
  <sodipodi:namedview
     id="namedview7"
     pagecolor="#c1c8cb"
     bordercolor="#6c838d"
     borderopacity="0.97647059"
     inkscape:pageshadow="0"
     inkscape:pageopacity="0.97647059"
     inkscape:pagecheckerboard="1"
     inkscape:document-units="px"
     showgrid="false"
     borderlayer="false"
     inkscape:showpageshadow="true"
     showborder="true"
     inkscape:snap-page="true"
     inkscape:deskcolor="#d1d1d1"
     showguides="true"
     inkscape:zoom="0.2818"
     inkscape:cx="363.7"
     inkscape:cy="725.7"
     inkscape:window-width="1920"
     inkscape:window-height="1043"
     inkscape:window-x="2560"
     inkscape:window-y="195"
     inkscape:window-maximized="1"
     inkscape:current-layer="layer1">
    <sodipodi:guide
       position="960,540"
       orientation="-1,0"
       id="guide1"
       inkscape:locked="false"
       inkscape:label=""
       inkscape:color="rgb(0,134,229)" />
    <sodipodi:guide
       position="960,540"
       orientation="0,1"
       id="guide2"
       inkscape:locked="false"
       inkscape:label=""
       inkscape:color="rgb(0,134,229)" />
  </sodipodi:namedview>
  <defs
     id="defs2">
    <inkscape:path-effect
       effect="knot"
       id="path-effect4364"
       crossing_points_vector="346.6 | 422.8 | 0 | 0 | 0 | 1 | 55.29 | 94.7 | -1"
       is_visible="true"
       interruption_width="16"
       prop_to_stroke_width="true"
       add_stroke_width="true"
       add_other_stroke_width="true"
       switcher_size="30"
       lpeversion="0"
       both="false"
       inverse_width="false" />
  </defs>
  <g
     inkscape:label="path"
     inkscape:groupmode="layer"
     id="layer1">
    <path
       d="m 1204,728.8 c -125,-0.1 -249.9,-4 -374,-4 -9.2,-0.1 -12.5,-5.5 -12.5,-12.1 0,-8.3 -7.4,-15.6 -23.3,-10 -34.2,12.2 -70.2,23.2 -107.2,22.5 -38.4,-0.6 -93.4,-1.7 -118.5,-10.8 -26.9,-9.9 -54.4,-32 -64.6,-40.5 -18.2,-15.8 -35.7,-40 -48.2,-72.8 -14.4,-37.9 -25.5,-100.7 -33,-156.2 -4.1,-30 -15.5,-101.5 -18.4,-128.9 -2.3,-24.8 -24.1,-10 -29.8,-27.3 -24,-72.8 -55.7,-128.7 -57.9,-138.2 -12.1,-26.8 -14.7,-43.2 -10.2,-62.1 3.2,-10.16 23.1,-26.38 34.3,-28.35 47.6,-7.48 90.8,-15.88 139.1,-22.65 3,-0.71 6.1,-1.25 9.3,-1.25 7.4,-1.43 15.7,7.13 20.2,13.02 24.3,34.25 91.8,145.13 132.7,193.63 40.2,48.2 83.2,85.5 133.4,134.6 48.6,47.3 99.4,98.5 148.2,142.6 12.1,11.7 36.7,-2.3 58.2,0.6 6.1,0.5 23.2,5.3 34.2,14.9 4,5.1 9,14.3 18,17.5 9,3.4 38,5.2 39,5.3 192,3.5 359,8.6 549,14.9 37,0.8 55,18.5 56,52.9 -1,13.2 -3,27.3 -14,40.4 -12,16.9 -35,34.8 -57,42.9 -33,13.6 -72,13.9 -109,17.2 -95,8.1 -198,2.4 -294,2.2 z"
       fill="none"
       stop-color="#000000"
       stroke="#1a1a1a"
       stroke-linejoin="round"
       stroke-width="13.0097"
       style="font-variation-settings:normal;display:inline;mix-blend-mode:normal;stroke:#00ff00;stroke-width:10;stroke-dasharray:none"
       id="trackpath-monza"
       sodipodi:nodetypes="ssssssssssscssssssssssscssssss"
       inkscape:transform-center-x="155.1"
       inkscape:transform-center-y="-251"
       inkscape:label="monza" />
    <path
       style="fill:none;stroke:#00ff00;stroke-width:10;stroke-dasharray:none;stroke-opacity:1"
       d="m 611.2,911.4 c -45.8,6.8 -91.4,14.8 -137.1,21.7 -32.9,4.9 -65.9,10 -98.9,13.8 -6.2,0.7 -12.6,0.3 -18.8,-0.3 -5.5,-0.5 -11.2,-1.3 -16.3,-3.1 -6,-2.1 -11.9,-4.9 -17,-8.5 -7,-5.1 -13.7,-11.1 -19.5,-17.6 -5.3,-6 -10.3,-12.9 -13.8,-20.1 -2,-4.1 -2.5,-9.2 -2.5,-13.8 0,-5.2 0.6,-10.9 2.5,-15.7 1.9,-4.4 5.4,-8.4 8.8,-11.9 3.4,-3.4 7.4,-6.6 11.6,-8.8 4.1,-2.1 8.7,-3.4 13.2,-4.1 7.4,-1.1 15.1,-1 22.6,-1.2 30.5,-1.1 61.1,-0.9 91.3,-2.9 4.2,-0.2 8.3,-1.8 12,-3.7 4.7,-2.4 9.4,-5.5 13.2,-9.1 3.6,-3.5 6.4,-7.9 9.1,-12.3 3.4,-5.7 5.3,-12.5 9.1,-17.9 2.6,-3.8 6.4,-7.2 10.3,-9.7 4.6,-2.9 9.9,-5.2 15.1,-6.6 4,-1 8.4,-0.8 12.5,-0.6 4.8,0.2 9.6,0.5 14.2,1.6 13.7,3.3 27,8.2 40.7,11.6 5.8,1.4 11.8,2.9 17.6,2.8 5.3,-0.1 10.8,-1.5 15.7,-3.5 5.3,-2 10.5,-5 15.1,-8.4 3.6,-2.8 6.7,-6.4 9.4,-10.1 6.8,-9.5 12.1,-20.4 19.1,-29.8 3.3,-4.4 7.3,-8.4 11.7,-11.6 4.5,-3.3 9.8,-5.8 15,-7.8 4.5,-1.8 9.4,-3.1 14.1,-3.8 5.5,-0.8 11.3,-1.4 16.7,-0.6 4.6,0.6 9.2,2.6 13.5,4.7 3.3,1.6 6.4,3.7 9.1,6.2 4.6,4.4 8.5,9.5 12.5,14.5 5.1,6.2 9.6,13 14.8,19.1 4.7,5.6 9,11.8 14.7,16 5.4,4 12.2,6.6 18.6,8.8 4.2,1.5 8.9,2.1 13.5,2.2 5.5,0.2 11.3,0.3 16.6,-1.2 7.3,-2.2 14.4,-5.9 21,-9.8 8.6,-5 17.1,-10.6 24.8,-16.9 7.3,-6 13.9,-13 20.1,-20.1 4.4,-5 8.2,-10.6 11.6,-16.3 4.3,-7.2 8.6,-14.6 11.6,-22.3 2.4,-6.2 3.5,-12.9 4.7,-19.5 1.3,-6.7 2.4,-13.5 2.9,-20.4 0.5,-7.2 0.8,-14.4 0.3,-21.6 -0.6,-8.2 -1.5,-16.6 -3.5,-24.5 -2.6,-10.2 -6.7,-19.9 -10.3,-29.8 -9.7,-26.5 -21.3,-52.8 -29.5,-79.4 -1.2,-3.7 -0.3,-8.1 1.2,-11.6 11.9,-28.6 24.9,-57.3 38.9,-84.8 1.5,-2.9 4.7,-5 7.6,-6.3 2.8,-1.2 6.4,-2.2 9.4,-1.2 63.7,20.4 128,41.4 191,65.3 6,2.5 12,8.6 16,14.1 14,17.2 26,37.6 40,54 3,2.9 8,4 12,4.1 3,0 7,-1.6 9,-3.8 2,-2.4 4,-6.6 5,-10.1 0,-3.2 -1,-7 -3,-10 -4,-8.5 -10,-16.2 -14,-24.5 -7,-12.2 -14,-24.5 -21,-37 -5,-10.3 -11,-20.5 -14,-31.4 -4,-10.1 -6,-20.8 -8,-31.4 -1,-7.5 0,-15.4 1,-22.9 1,-6.4 3,-12.8 5,-18.8 4,-10.1 8,-20.2 13,-29.5 6,-10.8 14,-20.9 21,-30.8 5,-6.7 11,-13 17,-18.8 10,-9.7 21,-19.2 32,-27.6 10,-8 21,-15.6 32,-21.7 11,-5.9 23,-10.8 35,-14.4 10,-3.1 20,-4.5 31,-5.7 9,-0.9 17,-1.6 26,-0.6 36,3.9 72,11.9 107,15.1 6,0.5 13,-1.4 18,-4.1 7,-3.1 13,-7.8 17,-13.2 6,-7.1 11,-15.6 14,-24.2 4,-9.1 7,-19.1 8,-28.8 1,-7 1,-14.9 -1,-21.4 -3,-7.3 -8,-14.6 -13,-20.1 -4,-3.5 -9,-5.4 -14,-6.9 -6,-1.73 -12,-3.02 -18,-2.8 -8,0.3 -17,2.06 -25,4.4 -13,3.6 -25,8.7 -37,13.5 -14,5.3 -28,10.7 -41,16.6 -13,5.5 -25,11.3 -37,17.6 -17,8.8 -34,17.4 -49,27.6 -19,12.1 -37,25.6 -55,39.2 -18,14.3 -36,29.8 -54,44.6 -21,17 -42,33.7 -62,50.9 -22,17.6 -43,35.5 -64,53.6 -31,27.3 -62.5,54.3 -92.7,82.6 -3.3,3.1 -5.9,7.3 -7.2,11.6 -4.2,13.8 -7.3,28.3 -9.1,42.7 -1.6,12.6 -2.7,25.6 -1.3,38.3 3,26.5 8.8,52.9 14.5,79.1 4.9,22.8 13.3,45.1 17.2,68.1 2.1,12.2 1.5,25.2 0.6,37.3 -0.1,2 -1.8,4.3 -3.7,5 -7.8,3.1 -17.7,3.1 -25.1,6.6 -2.8,1.3 -5.6,4.9 -5.7,7.9 -0.3,7.2 2.3,15.2 2.9,22.9 0.8,9.1 1,18.6 -0.3,27.6 -0.7,5.2 -2,10.2 -4.1,15.1 -2.2,4.7 -4.4,9.5 -7.3,13.8 -3.6,5.5 -7.5,11 -12.2,15.7 -4.3,4.2 -9.5,7.9 -14.8,11 -11.6,6.8 -23.7,13.3 -36.1,18.8 -7.6,3.4 -15.7,5.6 -23.8,7.8 -7,1.9 -14.2,3.4 -21.3,4.4 -70.4,10.4 -140.9,19.4 -211.3,29.8 z"
       id="trackpath-suzuka"
       sodipodi:nodetypes="sssssssssssssssssssssssssssssssssssssssssssssssssssssssssssssssssssssssssssssssssssssssssssssssssssssssssssssssssss"
       inkscape:label="#suzuka" />
  </g>
</svg>
