<?xml version="1.0" encoding="UTF-8" standalone="no"?>
<!-- Created with Inkscape (http://www.inkscape.org/) -->

<svg
   width="3840"
   height="2160"
   viewBox="0 0 3840 2160"
   version="1.1"
   id="svg5"
   inkscape:version="1.3 (0e150ed6c4, 2023-07-21)"
   sodipodi:docname="track-prototype.svg"
   xmlns:inkscape="http://www.inkscape.org/namespaces/inkscape"
   xmlns:sodipodi="http://sodipodi.sourceforge.net/DTD/sodipodi-0.dtd"
   xmlns="http://www.w3.org/2000/svg"
   xmlns:svg="http://www.w3.org/2000/svg">
  <sodipodi:namedview
     id="namedview7"
     pagecolor="#c1c8cb"
     bordercolor="#6c838d"
     borderopacity="0.97647059"
     inkscape:pageshadow="0"
     inkscape:pageopacity="0.97647059"
     inkscape:pagecheckerboard="1"
     inkscape:document-units="px"
     showgrid="false"
     borderlayer="false"
     inkscape:showpageshadow="true"
     showborder="true"
     inkscape:snap-page="true"
     inkscape:deskcolor="#d1d1d1"
     showguides="true"
     inkscape:zoom="0.1993"
     inkscape:cx="2010"
     inkscape:cy="1463"
     inkscape:window-width="1920"
     inkscape:window-height="1043"
     inkscape:window-x="2560"
     inkscape:window-y="195"
     inkscape:window-maximized="1"
     inkscape:current-layer="layer1">
    <sodipodi:guide
       position="960,540"
       orientation="-1,0"
       id="guide1"
       inkscape:locked="false"
       inkscape:label=""
       inkscape:color="rgb(0,134,229)" />
    <sodipodi:guide
       position="960,540"
       orientation="0,1"
       id="guide2"
       inkscape:locked="false"
       inkscape:label=""
       inkscape:color="rgb(0,134,229)" />
  </sodipodi:namedview>
  <defs
     id="defs2">
    <inkscape:path-effect
       effect="knot"
       id="path-effect4364"
       crossing_points_vector="346.6 | 422.8 | 0 | 0 | 0 | 1 | 55.29 | 94.7 | -1"
       is_visible="true"
       interruption_width="16"
       prop_to_stroke_width="true"
       add_stroke_width="true"
       add_other_stroke_width="true"
       switcher_size="30"
       lpeversion="0"
       both="false"
       inverse_width="false" />
  </defs>
  <g
     inkscape:label="path"
     inkscape:groupmode="layer"
     id="layer1">
    <path
       d="m 2753,1815 c -288,0 -575,-9 -858,-9 -22,0 -29,-14 -29,-28 0,-20 -19,-35 -54,-22 -79,26 -161,53 -245,50 -88,-2 -215,-4 -272,-25 -62,-22 -125,-73 -149,-93 -42,-35 -82,-92 -110,-166 -33,-88 -58.9,-232 -76,-360 -9.5,-68 -35.8,-231.7 -42.4,-294.8 -5,-56.8 -55.1,-23 -68.3,-62.6 -55,-167 -127.7,-295.2 -132.7,-317 -27.8,-61.6 -33.8,-99.3 -23.5,-142.6 7.4,-23.2 52.9,-60.5 78.8,-64.9 109.1,-17.2 208.2,-36.5 319.1,-52.1 7,-1.7 14,-2.9 21,-2.9 17,-3.1 36,16.5 47,30 56,78.4 210,332.9 304,444.3 92,110.5 190,195.9 306,308.6 111,109 228,226 341,327 27,27 83,-5 133,1 13,1 51,13 78,37 8,10 21,29 40,39 23,7 88,12 89,12 441,8 825,21 1262,34 85,2 126,42 128,121 -2,31 -7,63 -33,93 -27,39 -79,79 -130,99 -76,30 -166,30 -251,39 -217,19 -454,5 -673,5 z"
       fill="none"
       stop-color="#000000"
       stroke="#1a1a1a"
       stroke-linejoin="round"
       stroke-width="13.0097"
       style="font-variation-settings:normal;display:inline;mix-blend-mode:normal;stroke:#00ff00;stroke-width:22.9445;stroke-dasharray:none"
       id="trackpath-monza"
       sodipodi:nodetypes="ssssssssssscssssssssssscssssss"
       inkscape:transform-center-x="355.7"
       inkscape:transform-center-y="-575.7"
       inkscape:label="monza" />
    <path
       style="fill:none;stroke:#00ff00;stroke-width:22.8438;stroke-dasharray:none;stroke-opacity:1"
       d="m 1249,1907 c -104,14 -209,33 -313.1,49 -75.3,11 -150.7,22 -226.1,32 -14,1 -28.7,1 -42.9,0 -12.5,-3 -25.5,-4 -37.2,-8 -13.6,-6 -27.1,-12 -38.8,-20 -16,-11 -31.3,-25 -44.6,-41 -12.1,-12 -23.5,-28 -31.5,-45 -4.6,-9 -5.7,-21 -5.7,-32 0,-12 1.5,-24 5.7,-36 4.3,-10 12.4,-19 20.1,-27 7.8,-8 16.9,-15 26.4,-20 9.5,-5 20,-7 30.2,-8 17,-4 34.6,-4 51.7,-4 69.7,-3 139.6,-1 208.4,-7 9.7,0 19.1,-4 27.5,-9 10.8,-4 21.6,-11 30.2,-20 8.3,-8 14.6,-18 20.8,-29 7.7,-12 12.1,-27 20.8,-39 5.9,-10 14.7,-18 23.6,-23 10.5,-6 22.5,-12 34.5,-15 9,-2 19,-1 29,-1 10,0 21,1 32,4 31,7 62,19 93,25 14,4 27,8 40,6 12,0 25,-2 36,-7 12,-4 24,-11 34,-18 8,-8 16,-16 22,-25 16,-22 27,-45 43,-67 8,-10 17,-18 28,-26 10,-8 22,-14 34,-19 10,-4 21,-6 32,-9 12,-1 26,-2 38,-1 11,1 22,6 30,12 9,3 16,9 22,14 10,11 19,22 27,33 11,13 23,29 35,44 9,12 19,27 33,35 13,10 29,16 42,20 9,5 21,6 31,6 13,0 26,0 39,-3 16,-4 33,-13 48,-23 19,-10 38,-23 56,-38 16,-13 32,-29 46,-45 10,-12 19,-24 26,-38 10,-17 21,-34 26,-51 6,-15 8,-28 12,-44 2,-15 5,-31 7,-47 0,-17 1,-33 0,-50 -2,-18 -3,-38 -8,-56 -6,-23 -15,-44 -24,-67 -22,-60 -48,-121 -67,-182.2 -3,-8 0,-18.2 3,-26.2 27,-64.9 57,-131.1 89,-193.9 2,-6.6 10,-11.5 17,-14.3 6,-2.7 15,-5 21,-2.7 145,46.5 293,94.6 436,149.4 14,5.7 28,19.4 37,31.9 33,39.9 60,87 92,124 7,6 18,9 27,9 7,0 15,-3 20,-9 4,-6 10,-15 11,-23 0,-8 -1,-16 -7,-22 -9,-19.8 -21,-38 -32,-56.2 -15,-28.5 -31,-56.9 -46,-85.4 -12,-23 -26,-46.9 -32,-71.5 -10,-23.1 -15,-47.6 -19,-71.8 -3,-17.1 0,-35.2 2,-52.3 2,-14.7 7,-29.2 11,-42.9 10,-23.1 18,-46.1 30,-67.4 15,-24.6 32,-47.8 48,-70.3 11,-15.4 26,-29.8 38,-43 23,-22.2 49,-43.9 73,-62.9 23,-18.5 49,-35.8 74,-49.8 25,-13.4 53,-24.7 80,-32.9 23,-6.9 47,-10.1 70,-12.8 22,-2.2 39,-3.8 61,-1.5 82,8.9 164,27.2 243,34.5 14,1.1 31,-3.2 43,-9.4 16,-7 28,-17.7 38,-30.1 13,-16.2 25,-35.7 32,-55.4 8,-20.7 16,-43.6 18,-65.6 3,-16.1 3,-34.1 -2,-49 -8,-16.74 -19,-33.36 -31,-45.88 -8,-7.97 -19,-12.3 -32,-15.71 -13,-4.1 -26,-6.95 -41,-6.49 -17,0.68 -38,4.67 -55,10.02 -31,8.31 -58,19.92 -86,30.85 -33,12.07 -63,24.51 -93,37.91 -30,12.6 -57,25.8 -84,40.2 -39,20.1 -78,39.8 -112,63.1 -45,27.7 -85,58.5 -126,89.6 -41,32.6 -82,68 -124,101.7 -48,39 -96,77.2 -141,116.4 -51,40.2 -100,81.2 -146,122.5 -71,62.3 -144,124.1 -213,189.2 -7,6.8 -13,16.2 -16,26.4 -10,30.7 -17,64.9 -22,97.9 -2,28 -5,58 -2,88 7,60 19,120 33,181 11,51 32,101 40,155 4,27 3,56 1,84 0,4 -3,10 -8,11 -19,8 -40,8 -58,16 -7,3 -12,10 -12,17 -2,18 5,35 5,54 4,20 4,42 0,61 -1,14 -4,25 -10,37 -5,10 -10,21 -16,29 -8,14 -17,26 -28,37 -8,10 -22,18 -33,26 -28,16 -55,29 -84,42 -17,8 -34,14 -53,18 -17,4 -33,8 -49,9 -161,25 -321,46 -482,70 z"
       id="trackpath-suzuka"
       sodipodi:nodetypes="sssssssssssssssssssssssssssssssssssssssssssssssssssssssssssssssssssssssssssssssssssssssssssssssssssssssssssssssssss"
       inkscape:label="#suzuka" />
  </g>
</svg>
